<?xml version="1.0" encoding="UTF-8" standalone="no"?>
<!-- Created with Inkscape (http://www.inkscape.org/) -->

<svg
   width="900"
   height="680"
   viewBox="0 0 450 340"
   version="1.1"
   id="svg1"
   inkscape:version="1.4 (86a8ad7, 2024-10-11)"
   sodipodi:docname="tuner2.svg"
   inkscape:export-filename="tunerExport.svg"
   inkscape:export-xdpi="96"
   inkscape:export-ydpi="96"
   xml:space="preserve"
   xmlns:inkscape="http://www.inkscape.org/namespaces/inkscape"
   xmlns:sodipodi="http://sodipodi.sourceforge.net/DTD/sodipodi-0.dtd"
   xmlns:xlink="http://www.w3.org/1999/xlink"
   xmlns="http://www.w3.org/2000/svg"
   xmlns:svg="http://www.w3.org/2000/svg"><sodipodi:namedview
     id="namedview1"
     pagecolor="#0d0d0d"
     bordercolor="#000000"
     borderopacity="0.25"
     inkscape:showpageshadow="2"
     inkscape:pageopacity="0.0"
     inkscape:pagecheckerboard="false"
     inkscape:deskcolor="#d1d1d1"
     inkscape:document-units="px"
     inkscape:zoom="22.627417"
     inkscape:cx="49.188115"
     inkscape:cy="255.99475"
     inkscape:window-width="2560"
     inkscape:window-height="1351"
     inkscape:window-x="1911"
     inkscape:window-y="-9"
     inkscape:window-maximized="1"
     inkscape:current-layer="layer8"
     showguides="true"
     showgrid="true"
     inkscape:lockguides="false"
     inkscape:export-bgcolor="#0d0d0d00"
     showborder="true"><inkscape:grid
       id="grid1"
       units="px"
       originx="256"
       originy="256"
       spacingx="10"
       spacingy="10"
       empcolor="#0099e5"
       empopacity="0.30196078"
       color="#0099e5"
       opacity="0.14901961"
       empspacing="1"
       enabled="true"
       visible="true"
       dotted="false"
       snapvisiblegridlinesonly="true" /><sodipodi:guide
       position="116,319.54594"
       orientation="1,0"
       id="guide9"
       inkscape:locked="false" /><sodipodi:guide
       position="336,334"
       orientation="1,0"
       id="guide10"
       inkscape:locked="false" /><sodipodi:guide
       position="226,244.82422"
       orientation="1,0"
       id="guide15"
       inkscape:locked="false" /></sodipodi:namedview><defs
     id="defs1"><linearGradient
       id="linearGradient1"
       inkscape:collect="always"><stop
         style="stop-color:#2dbcde;stop-opacity:0;"
         offset="0"
         id="stop19" /><stop
         style="stop-color:#2dbcde;stop-opacity:0.40000001;"
         offset="0.12727273"
         id="stop3" /><stop
         style="stop-color:#2dbcde;stop-opacity:1;"
         offset="0.50372207"
         id="stop1" /><stop
         style="stop-color:#2dbcde;stop-opacity:0.40000001;"
         offset="0.85000002"
         id="stop2" /><stop
         style="stop-color:#2dbcde;stop-opacity:0;"
         offset="1"
         id="stop20" /></linearGradient><rect
       x="352"
       y="72"
       width="320"
       height="160"
       id="rect6" /><rect
       x="216"
       y="46"
       width="80"
       height="80"
       id="rect18" /><linearGradient
       inkscape:collect="always"
       xlink:href="#linearGradient1"
       id="linearGradient2"
       x1="15.49922"
       y1="240.875"
       x2="436.25079"
       y2="240.875"
       gradientUnits="userSpaceOnUse"
       gradientTransform="matrix(1,0,0,0.82330499,0.48928974,32.697234)" /><filter
       inkscape:collect="always"
       style="color-interpolation-filters:sRGB"
       id="filter18"
       x="-0.14206701"
       y="-0.014917549"
       width="1.284134"
       height="1.0298351"><feGaussianBlur
         inkscape:collect="always"
         stdDeviation="1.1825315"
         id="feGaussianBlur18" /></filter></defs><path
     d="m 16.022984,136.02298 v 190.22781 m 10,-190.22781 v 190.22781 m 10,-190.22781 v 190.22781 m 10,-190.22781 v 190.22781 m 10,-190.22781 v 190.22781 m 10,-190.22781 v 190.22781 m 10,-190.22781 v 190.22781 m 10,-190.22781 v 190.22781 m 10,-190.22781 v 190.22781 m 9.999996,-190.22781 v 190.22781 m 10,-190.22781 v 190.22781 m 10,-190.22781 v 190.22781 m 10,-190.22781 v 190.22781 m 10,-190.22781 v 190.22781 m 10,-190.22781 v 190.22781 m 10,-190.22781 v 190.22781 m 10,-190.22781 v 190.22781 m 10,-190.22781 v 190.22781 m 10,-190.22781 v 190.22781 m 10,-190.22781 v 190.22781 m 10,-190.22781 v 190.22781 m 10,-190.22781 v 190.22781 m 10,-190.22781 v 190.22781 m 10,-190.22781 v 190.22781 m 10,-190.22781 v 190.22781 m 10,-190.22781 v 190.22781 m 10,-190.22781 v 190.22781 m 10,-190.22781 v 190.22781 m 10,-190.22781 v 190.22781 m 10,-190.22781 v 190.22781 m 10,-190.22781 v 190.22781 m 10,-190.22781 v 190.22781 m 10,-190.22781 v 190.22781 m 10,-190.22781 v 190.22781 m 10,-190.22781 v 190.22781 m 10,-190.22781 v 190.22781 m 10,-190.22781 v 190.22781 m 10,-190.22781 v 190.22781 m 10,-190.22781 v 190.22781 m 10,-190.22781 v 190.22781 m 10,-190.22781 v 190.22781 m 10,-190.22781 v 190.22781 m 10,-190.22781 V 326.25079 M 16.022984,136.02298 H 436.47858 m -420.455596,10 H 436.47858 m -420.455596,10 H 436.47858 m -420.455596,10 H 436.47858 m -420.455596,10 H 436.47858 m -420.455596,10 H 436.47858 m -420.455596,10 H 436.47858 m -420.455596,10 H 436.47858 m -420.455596,10 H 436.47858 m -420.455596,10 H 436.47858 m -420.455596,10 H 436.47858 m -420.455596,10 H 436.47858 m -420.455596,10 H 436.47858 m -420.455596,10 H 436.47858 m -420.455596,10 H 436.47858 m -420.455596,10 H 436.47858 m -420.455596,10 H 436.47858 m -420.455596,10 H 436.47858 m -420.455596,10 H 436.47858 m -420.455596,10 H 436.47858"
     style="display:none;opacity:0.497053;fill:none;stroke:#2dbcde;stroke-width:0.5px;stroke-opacity:1"
     id="path18" /><rect
     style="opacity:0.25;mix-blend-mode:normal;fill:#87b37a;fill-opacity:1;stroke:#87b37a;stroke-width:0;stroke-linecap:round;stroke-linejoin:round;stroke-dasharray:none;stroke-dashoffset:0;stroke-opacity:1;paint-order:stroke fill markers;filter:url(#filter18)"
     id="rect13"
     height="190.25079"
     x="216.01149"
     y="136"
     inkscape:label="midIndicator"
     width="19.97702" /><path
     d="M 26.011494,136 V 326.47781 M 36.011494,136 V 326.47781 M 46.011494,136 V 326.47781 M 56.011494,136 V 326.47781 M 66.011494,136 V 326.47781 M 76.011494,136 V 326.47781 M 86.011494,136 V 326.47781 M 96.011494,136 V 326.47781 M 106.01149,136 V 326.47781 M 116.01149,136 V 326.47781 M 126.01149,136 V 326.47781 M 136.01149,136 V 326.47781 M 146.01149,136 V 326.47781 M 156.01149,136 V 326.47781 M 166.01149,136 V 326.47781 M 176.01149,136 V 326.47781 M 186.01149,136 V 326.47781 M 196.01149,136 V 326.47781 M 206.01149,136 V 326.47781 M 216.01149,136 V 326.47781 M 226.01149,136 V 326.47781 M 236.01149,136 V 326.47781 M 246.01149,136 V 326.47781 M 256.01149,136 V 326.47781 M 266.01149,136 V 326.47781 M 276.01149,136 V 326.47781 M 286.01149,136 V 326.47781 M 296.01149,136 V 326.47781 M 306.01149,136 V 326.47781 M 316.01149,136 V 326.47781 M 326.01149,136 V 326.47781 M 336.01149,136 V 326.47781 M 346.01149,136 V 326.47781 M 356.01149,136 V 326.47781 M 366.01149,136 V 326.47781 M 376.01149,136 V 326.47781 M 386.01149,136 V 326.47781 M 396.01149,136 V 326.47781 M 406.01149,136 V 326.47781 M 416.01149,136 V 326.47781 M 426.01149,136 V 326.47781 M 436.01149,136 V 326.47781 M 16.011494,136 H 436.71709 M 16.011494,146 H 436.71709 M 16.011494,156 H 436.71709 M 16.011494,166 H 436.71709 M 16.011494,176 H 436.71709 M 16.011494,186 H 436.71709 M 16.011494,196 H 436.71709 M 16.011494,206 H 436.71709 M 16.011494,216 H 436.71709 M 16.011494,226 H 436.71709 M 16.011494,236 H 436.71709 M 16.011494,246 H 436.71709 M 16.011494,256 H 436.71709 M 16.011494,266 H 436.71709 M 16.011494,276 H 436.71709 M 16.011494,286 H 436.71709 M 16.011494,296 H 436.71709 M 16.011494,306 H 436.71709 M 16.011494,316 H 436.71709 M 16.011494,326 H 436.71709 M 16.011494,326.47781 V 136 c 420.227016,0.22702 419.999996,0 419.999996,0"
     style="display:inline;opacity:0.5;fill:none;stroke:url(#linearGradient2);stroke-width:0.5;stroke-dasharray:none;stroke-opacity:1"
     id="path1"
     inkscape:label="grid" /><path
     style="fill:#87b37a;fill-opacity:0.440501;stroke:#87b37a;stroke-width:0.5;stroke-linecap:round;stroke-linejoin:round;stroke-dasharray:none;stroke-opacity:1;paint-order:stroke markers fill"
     d="M 226,136 V 326"
     id="path16"
     inkscape:label="midline" /><g
     inkscape:groupmode="layer"
     id="pitchScale"
     inkscape:label="pitchScale"
     style="display:inline;stroke-width:2;stroke-dasharray:none"
     transform="translate(-12,32.52469)"><path
       style="display:inline;opacity:1;fill:#87b37a;fill-opacity:0;stroke:#2dbcde;stroke-width:0.75;stroke-linecap:round;stroke-linejoin:round;stroke-dasharray:none;stroke-dashoffset:0;stroke-opacity:1;paint-order:stroke fill markers"
       d="M 28.011494,103.47531 H 448 447.52198 Z"
       id="path20"
       inkscape:label="horizontalSeparator" /></g><g
     inkscape:groupmode="layer"
     id="layer8"
     inkscape:label="needle"><path
       style="fill:#d7263d;fill-opacity:1;stroke:#d7263d;stroke-width:1.0001;stroke-linecap:round;stroke-linejoin:round;stroke-dasharray:none;stroke-opacity:1;paint-order:stroke markers fill"
       d="m 6.013454,116 9.99804,20 10.00196,-20 z"
       id="needle"
       inkscape:label="#needle" /></g><g
     inkscape:groupmode="layer"
     id="layer6"
     inkscape:label="placeHolders"><rect
       style="fill:#2e2e2e;fill-opacity:1;fill-rule:nonzero;stroke:#2e2e2e;stroke-width:2.98807;stroke-linecap:round;stroke-linejoin:round;stroke-dasharray:none;stroke-opacity:1;paint-order:stroke markers fill"
       id="rect11"
       width="200"
       height="90"
       x="126"
       y="15.28125" /><path
       style="opacity:1;fill:#ffffff;fill-opacity:1;stroke:#ffffff;stroke-width:0;stroke-linecap:round;stroke-linejoin:round;stroke-dasharray:none;stroke-dashoffset:0;stroke-opacity:1;paint-order:stroke fill markers"
       d="m 296,46 c 20,20 20,20 20,20 l -20,20 z"
       id="rightArrow"
       inkscape:label="rightArrow" /><path
       style="opacity:1;fill:#ffffff;fill-opacity:1;stroke:#ffffff;stroke-width:0;stroke-linecap:round;stroke-linejoin:round;stroke-dasharray:none;stroke-dashoffset:0;stroke-opacity:1;paint-order:stroke fill markers"
       d="m 156,46 c -20,20 -20,20 -20,20 l 20,20 z"
       id="leftArrow"
       inkscape:label="leftArrow" /></g><rect
     style="display:inline;fill:#5aa02c;fill-opacity:0;stroke:#2dbcde;stroke-width:0;stroke-linecap:round;stroke-linejoin:round;stroke-dasharray:none;stroke-opacity:1;paint-order:stroke markers fill"
     id="canvasBounds"
     width="420"
     height="189.77222"
     x="16.25078"
     y="136.25078" /><g
     inkscape:label="background"
     inkscape:groupmode="layer"
     id="layer1" /><g
     inkscape:groupmode="layer"
     id="layer4"
     inkscape:label="scaleLabels"
     style="stroke-width:0;stroke-dasharray:none;paint-order:stroke markers fill" /><g
     inkscape:groupmode="layer"
     id="layer2"
     inkscape:label="toneDisplay"
     transform="translate(10,10)"><text
       xml:space="preserve"
       style="font-style:normal;font-variant:normal;font-weight:normal;font-stretch:normal;font-size:64px;font-family:arial;-inkscape-font-specification:arial;text-align:start;letter-spacing:0px;writing-mode:lr-tb;direction:ltr;text-anchor:start;display:inline;fill:#ffffff;fill-opacity:1;stroke:#ffffff;stroke-width:0;stroke-dasharray:none;stroke-opacity:1;paint-order:stroke markers fill"
       x="166"
       y="85.28125"
       id="toneName"
       inkscape:label="toneName"><tspan
         sodipodi:role="line"
         x="166"
         y="85.28125"
         id="tspan1"
         style="letter-spacing:0px;stroke-width:0">A1</tspan></text><text
       xml:space="preserve"
       style="font-size:48px;font-family:arial;-inkscape-font-specification:arial;text-align:start;letter-spacing:2.5px;writing-mode:lr-tb;direction:ltr;text-anchor:start;fill:#0d0d0d;fill-opacity:1;stroke:#ffffff;stroke-width:0;stroke-linecap:round;stroke-linejoin:round;stroke-dasharray:none;paint-order:stroke markers fill"
       x="243.07812"
       y="80.359375"
       id="sharp"
       inkscape:label="sharp"><tspan
         sodipodi:role="line"
         id="tspan4"
         style="font-size:48px;fill:#0d0d0d;fill-opacity:1;stroke-width:0;stroke-dasharray:none"
         x="243.07812"
         y="80.359375">♯</tspan></text><text
       xml:space="preserve"
       style="font-size:18.6667px;font-family:arial;-inkscape-font-specification:arial;text-align:center;letter-spacing:0px;writing-mode:lr-tb;direction:ltr;text-anchor:middle;fill:#ffffff;fill-opacity:1;stroke:#ffffff;stroke-width:0;stroke-linecap:round;stroke-linejoin:round;stroke-dasharray:none;paint-order:stroke markers fill"
       x="216"
       y="25.28125"
       id="text7"
       inkscape:label="toneLabel"><tspan
         sodipodi:role="line"
         id="tspan7"
         style="font-size:18.6667px;fill:#ffffff;fill-opacity:1;stroke-width:0"
         x="216"
         y="25.28125">tón</tspan></text></g><g
     inkscape:groupmode="layer"
     id="layer3"
     inkscape:label="centsDisplay" /><g
     inkscape:groupmode="layer"
     id="layer5"
     inkscape:label="stringNumberDisplay" /><g
     inkscape:groupmode="layer"
     id="g5"
     inkscape:label="pitchScale"
     style="stroke-width:2;stroke-dasharray:none"><path
       style="display:none;fill:#ffffff;stroke:#ffffff;stroke-width:2.04939;stroke-linecap:round;stroke-linejoin:round;stroke-dasharray:none;stroke-opacity:1"
       d="m 15.75078,126.25078 c 0,20 0,20 0,20 v 0"
       id="path2" /><path
       style="display:none;fill:#ffffff;stroke:#ffffff;stroke-width:2.04939;stroke-linecap:round;stroke-linejoin:round;stroke-dasharray:none;stroke-opacity:1"
       d="m 435.75078,126.25078 c 0,20 0,20 0,20 v 0"
       id="path3" /><path
       style="display:none;fill:#ffffff;stroke:#ffffff;stroke-width:2.04939;stroke-dasharray:none;stroke-opacity:1"
       d="m 15.75078,136.25078 h 420 v 0"
       id="path5"
       inkscape:label="pitchScale"
       sodipodi:nodetypes="ccc" /></g></svg>
